<?xml version="1.0" encoding="UTF-8" standalone="no"?>
<!-- Created with Inkscape (http://www.inkscape.org/) -->

<svg
   width="280"
   height="90"
   viewBox="0 0 74.083335 23.8125"
   version="1.1"
   id="svg5"
   sodipodi:docname="logo-white.svg"
   inkscape:version="1.1 (c68e22c387, 2021-05-23)"
   xmlns:inkscape="http://www.inkscape.org/namespaces/inkscape"
   xmlns:sodipodi="http://sodipodi.sourceforge.net/DTD/sodipodi-0.dtd"
   xmlns:xlink="http://www.w3.org/1999/xlink"
   xmlns="http://www.w3.org/2000/svg"
   xmlns:svg="http://www.w3.org/2000/svg">
  <sodipodi:namedview
     id="namedview7"
     pagecolor="#20282d"
     bordercolor="#666666"
     borderopacity="1.0"
     inkscape:pageshadow="2"
     inkscape:pageopacity="0"
     inkscape:pagecheckerboard="0"
     inkscape:document-units="px"
     showgrid="false"
     units="px"
     inkscape:zoom="4.192802"
     inkscape:cx="132.36972"
     inkscape:cy="64.51533"
     inkscape:window-width="1920"
     inkscape:window-height="1017"
     inkscape:window-x="-8"
     inkscape:window-y="-8"
     inkscape:window-maximized="1"
     inkscape:current-layer="text1162" />
  <defs
     id="defs2">
    <color-profile
       name="sRGB-IEC61966-2.1"
       xlink:href="../../../../../../windows/system32/spool/drivers/color/sRGB%20Color%20Space%20Profile.icm"
       id="color-profile134252" />
    <color-profile
       name="Agfa-:-Swop-Standard"
       xlink:href="../../../../../../windows/system32/spool/drivers/color/RSWOP.icm"
       id="color-profile134254" />
  </defs>
  <g
     inkscape:label="Layer 1"
     inkscape:groupmode="layer"
     id="layer1">
    <g
       aria-label="ICTWebwerk"
       id="text1162"
       style="font-size:10.5833px;line-height:1.25;stroke-width:0.264583"
       transform="matrix(0.5,0,0,0.5,-28.660225,-20.155994)">
      <path
         d="m 68.923017,56.327716 v 17.5006 h -2.413 v -17.5006 z"
         style="letter-spacing:-0.931333px;fill-opacity:1;fill:#ffffff"
         id="path110099" />
      <path
         d="m 77.596144,56.022916 q 1.5748,0 2.6416,0.4064 1.0922,0.4064 2.2098,1.3208 l -1.3208,1.5494 q -1.6002,-1.2954 -3.3782,-1.2954 -2.1844,0 -3.5306,1.6764 -1.3208,1.6764 -1.3208,5.3848 0,3.6068 1.3208,5.334 1.3208,1.7018 3.5052,1.7018 1.1176,0 1.9558,-0.381 0.8382,-0.381 1.778,-1.0668 l 1.1938,1.524 q -0.8128,0.8382 -2.0828,1.397 -1.27,0.5588 -2.921,0.5588 -2.1336,0 -3.81,-1.0414 -1.651,-1.0668 -2.5908,-3.0988 -0.9144,-2.0574 -0.9144,-4.9276 0,-2.8702 0.9652,-4.9022 0.9652,-2.0574 2.6162,-3.0988 1.651,-1.0414 3.683,-1.0414 z"
         style="letter-spacing:-0.931333px;fill:#ffffff;fill-opacity:1"
         id="path110101" />
      <path
         d="m 95.50679,56.327716 -0.254,2.0574 h -4.8514 v 15.4432 h -2.413 v -15.4432 h -4.9784 v -2.0574 z"
         style="letter-spacing:-0.132292px;fill:#ffffff;fill-opacity:1"
         id="path110103" />
      <path
         d="m 116.39261,56.276916 -3.2258,17.5514 h -4.3688 l -2.667,-13.9954 -2.7432,13.9954 h -4.241799 l -3.175,-17.5514 h 3.3274 l 2.235199,14.8844 2.8702,-14.8844 h 3.556 l 2.8194,14.8844 2.4384,-14.8844 z"
         style="font-weight:500;-inkscape-font-specification:'Fira Sans, Medium';letter-spacing:0px;fill:#ffffff;fill-opacity:1"
         id="path110105" />
      <path
         d="m 128.61957,66.524787 q 0,0.254 -0.0762,1.3208 h -8.4328 q 0.1524,1.9558 1.016,2.794 0.8636,0.8382 2.286,0.8382 0.889,0 1.6764,-0.2794 0.7874,-0.3048 1.6764,-0.9144 l 1.3462,1.8542 q -2.2352,1.8034 -4.9784,1.8034 -3.0734,0 -4.7498,-1.8796 -1.651,-1.8796 -1.651,-5.1308 0,-2.057399 0.7112,-3.682999 0.7112,-1.651 2.0574,-2.5654 1.3462,-0.9398 3.2004,-0.9398 2.8194,0 4.3688,1.8034 1.5494,1.778 1.5494,4.978399 z m -3.2258,-0.9398 q 0,-3.530599 -2.6162,-3.530599 -1.1938,0 -1.8796,0.889 -0.6604,0.8636 -0.7874,2.793999 h 5.2832 z"
         style="font-weight:500;-inkscape-font-specification:'Fira Sans, Medium';letter-spacing:0px;fill:#ffffff;fill-opacity:1"
         id="path110107" />
      <path
         d="m 137.50449,59.742988 q 2.3368,0 3.6576,1.8796 1.3208,1.8542 1.3208,5.206999 0,2.0828 -0.6604,3.7084 -0.635,1.6002 -1.8288,2.5146 -1.1938,0.889 -2.8194,0.889 -1.0922,0 -2.0066,-0.4572 -0.889,-0.4572 -1.5494,-1.2954 l -0.2032,1.3716 h -2.8702 V 54.739188 l 3.2512,-0.3556 v 7.2644 q 0.6604,-0.9144 1.6002,-1.397 0.9652,-0.508 2.1082,-0.508 z m -1.2192,11.760199 q 1.3208,0 2.0574,-1.1176 0.7366,-1.143 0.7366,-3.556 0,-2.539999 -0.6858,-3.581399 -0.6858,-1.0668 -1.9304,-1.0668 -1.5494,0 -2.667,1.8288 v 5.943599 q 0.4318,0.7366 1.0668,1.143 0.6604,0.4064 1.4224,0.4064 z"
         style="font-weight:500;-inkscape-font-specification:'Fira Sans, Medium';letter-spacing:0px;fill:#ffffff;fill-opacity:1"
         id="path110109" />
      <path
         d="m 160.93151,60.123988 -2.921,13.436599 h -4.064 l -2.032,-10.540999 -2.0828,10.540999 h -3.9878 l -2.9718,-13.436599 h 3.2512 l 1.8796,11.048999 2.3368,-11.048999 h 3.3274 l 2.1336,11.048999 2.0066,-11.048999 z"
         style="font-weight:500;-inkscape-font-specification:'Fira Sans, Medium';letter-spacing:0px;fill:#ffffff;fill-opacity:1"
         id="path110111" />
      <path
         d="m 173.62552,66.257059 q 0,0.254 -0.0762,1.3208 h -8.4328 q 0.1524,1.9558 1.016,2.794 0.8636,0.8382 2.286,0.8382 0.889,0 1.6764,-0.2794 0.7874,-0.3048 1.6764,-0.9144 l 1.3462,1.8542 q -2.2352,1.8034 -4.9784,1.8034 -3.0734,0 -4.7498,-1.8796 -1.651,-1.8796 -1.651,-5.1308 0,-2.0574 0.7112,-3.683 0.7112,-1.651 2.0574,-2.5654 1.3462,-0.9398 3.2004,-0.9398 2.8194,0 4.3688,1.8034 1.5494,1.778 1.5494,4.9784 z m -3.2258,-0.9398 q 0,-3.5306 -2.6162,-3.5306 -1.1938,0 -1.8796,0.889 -0.6604,0.8636 -0.7874,2.794 h 5.2832 z"
         style="font-weight:500;-inkscape-font-specification:'Fira Sans, Medium';letter-spacing:0px;fill:#ffffff;fill-opacity:1"
         id="path110113" />
      <path
         d="m 181.77865,59.500659 q 0.7366,0 1.3462,0.1778 l -0.5588,3.1496 q -0.6096,-0.1524 -1.1938,-0.1524 -1.1938,0 -1.8796,0.8636 -0.6858,0.8382 -1.0922,2.5908 v 7.1628 h -3.2512 v -13.4366 h 2.8194 l 0.3048,2.6416 q 0.4826,-1.4478 1.397,-2.2098 0.9144,-0.7874 2.1082,-0.7874 z"
         style="font-weight:500;-inkscape-font-specification:'Fira Sans, Medium';letter-spacing:0px;fill:#ffffff;fill-opacity:1"
         id="path110115" />
      <path
         d="m 187.81395,54.115859 v 19.177 h -3.2512 v -18.8214 z m 8.0518,5.7404 -4.4704,5.9182 4.9022,7.5184 h -3.7338 l -4.6228,-7.3406 4.4958,-6.096 z"
         style="font-weight:500;-inkscape-font-specification:'Fira Sans, Medium';letter-spacing:0px;fill:#ffffff;fill-opacity:1"
         id="path110117" />
    </g>
    <g
       inkscape:groupmode="layer"
       id="layer3"
       inkscape:label="Layer 2" />
    <text
       xml:space="preserve"
       style="font-style:normal;font-weight:normal;font-size:10.5833px;line-height:1.25;font-family:sans-serif;fill:#ffffff;fill-opacity:1;stroke:none;stroke-width:0.264583"
       x="161.04187"
       y="32.056923"
       id="text114038"><tspan
         sodipodi:role="line"
         id="tspan114036"
         style="stroke-width:0.264583;fill:#ffffff;fill-opacity:1"
         x="161.04187"
         y="32.056923" /></text>
  </g>
</svg>
