<svg xmlns="http://www.w3.org/2000/svg" viewBox="0 0 400 350" fill="none">
  <defs>
    <linearGradient id="bgGradC3" x1="0%" y1="0%" x2="100%" y2="100%">
      <stop offset="0%" style="stop-color:#12121a"/>
      <stop offset="100%" style="stop-color:#1a1a25"/>
    </linearGradient>
    <linearGradient id="blueGradC3" x1="0%" y1="0%" x2="100%" y2="100%">
      <stop offset="0%" style="stop-color:#3b82f6"/>
      <stop offset="100%" style="stop-color:#8b5cf6"/>
    </linearGradient>
    <linearGradient id="greenGradC3" x1="0%" y1="0%" x2="100%" y2="0%">
      <stop offset="0%" style="stop-color:#10b981"/>
      <stop offset="100%" style="stop-color:#34d399"/>
    </linearGradient>
    <linearGradient id="orangeGradC3" x1="0%" y1="0%" x2="100%" y2="0%">
      <stop offset="0%" style="stop-color:#f59e0b"/>
      <stop offset="100%" style="stop-color:#fbbf24"/>
    </linearGradient>
    <linearGradient id="cardGradC3" x1="0%" y1="0%" x2="100%" y2="100%">
      <stop offset="0%" style="stop-color:#1e1e2a"/>
      <stop offset="100%" style="stop-color:#252532"/>
    </linearGradient>
    <filter id="glowC3" x="-50%" y="-50%" width="200%" height="200%">
      <feGaussianBlur stdDeviation="3" result="coloredBlur"/>
      <feMerge>
        <feMergeNode in="coloredBlur"/>
        <feMergeNode in="SourceGraphic"/>
      </feMerge>
    </filter>
    <filter id="shadowC3" x="-20%" y="-20%" width="140%" height="140%">
      <feDropShadow dx="0" dy="8" stdDeviation="12" flood-color="#000" flood-opacity="0.3"/>
    </filter>
  </defs>
  
  <!-- Background -->
  <rect width="400" height="350" fill="url(#bgGradC3)"/>
  
  <!-- Code editor window -->
  <g filter="url(#shadowC3)">
    <rect x="30" y="30" width="280" height="200" rx="12" fill="url(#cardGradC3)" stroke="#2a2a3a" stroke-width="1"/>
    
    <!-- Editor header -->
    <rect x="30" y="30" width="280" height="35" rx="12" fill="#1a1a25"/>
    <rect x="30" y="53" width="280" height="12" fill="#1a1a25"/>
    
    <!-- Window controls -->
    <circle cx="52" cy="47" r="6" fill="#ff5f57"/>
    <circle cx="72" cy="47" r="6" fill="#febc2e"/>
    <circle cx="92" cy="47" r="6" fill="#28c840"/>
    
    <!-- Tab -->
    <rect x="115" y="38" width="80" height="22" rx="4" fill="#12121a"/>
    <text x="130" y="53" font-family="monospace" font-size="9" fill="#94a3b8">index.html</text>
    <text x="185" y="53" font-family="system-ui" font-size="10" fill="#64748b">×</text>
    
    <!-- Line numbers -->
    <g transform="translate(40, 75)" font-family="monospace" font-size="10" fill="#64748b">
      <text x="0" y="0">1</text>
      <text x="0" y="16">2</text>
      <text x="0" y="32">3</text>
      <text x="0" y="48">4</text>
      <text x="0" y="64">5</text>
      <text x="0" y="80">6</text>
      <text x="0" y="96">7</text>
      <text x="0" y="112">8</text>
      <text x="0" y="128">9</text>
    </g>
    
    <!-- Code content -->
    <g transform="translate(65, 75)" font-family="monospace" font-size="10">
      <!-- Line 1 -->
      <text x="0" y="0" fill="#8b5cf6">&lt;!DOCTYPE</text>
      <text x="65" y="0" fill="#f1f5f9">html</text>
      <text x="85" y="0" fill="#8b5cf6">&gt;</text>
      
      <!-- Line 2 -->
      <text x="0" y="16" fill="#8b5cf6">&lt;html</text>
      <text x="35" y="16" fill="#f59e0b">lang</text>
      <text x="55" y="16" fill="#f1f5f9">=</text>
      <text x="62" y="16" fill="#10b981">"hu"</text>
      <text x="82" y="16" fill="#8b5cf6">&gt;</text>
      
      <!-- Line 3 -->
      <text x="10" y="32" fill="#8b5cf6">&lt;head&gt;</text>
      
      <!-- Line 4 -->
      <text x="20" y="48" fill="#8b5cf6">&lt;meta</text>
      <text x="50" y="48" fill="#f59e0b">charset</text>
      <text x="90" y="48" fill="#f1f5f9">=</text>
      <text x="97" y="48" fill="#10b981">"UTF-8"</text>
      <text x="140" y="48" fill="#8b5cf6">/&gt;</text>
      
      <!-- Line 5 -->
      <text x="20" y="64" fill="#8b5cf6">&lt;title&gt;</text>
      <text x="55" y="64" fill="#f1f5f9">ICT Webwerk</text>
      <text x="125" y="64" fill="#8b5cf6">&lt;/title&gt;</text>
      
      <!-- Line 6 -->
      <text x="10" y="80" fill="#8b5cf6">&lt;/head&gt;</text>
      
      <!-- Line 7 -->
      <text x="10" y="96" fill="#8b5cf6">&lt;body&gt;</text>
      
      <!-- Line 8 - cursor line highlighted -->
      <rect x="-5" y="104" width="230" height="16" fill="url(#blueGradC3)" opacity="0.1"/>
      <text x="20" y="112" fill="#8b5cf6">&lt;div</text>
      <text x="45" y="112" fill="#f59e0b">class</text>
      <text x="70" y="112" fill="#f1f5f9">=</text>
      <text x="77" y="112" fill="#10b981">"hero"</text>
      <text x="112" y="112" fill="#8b5cf6">&gt;</text>
      <rect x="117" y="103" width="2" height="14" fill="#3b82f6">
        <animate attributeName="opacity" values="1;0;1" dur="1s" repeatCount="indefinite"/>
      </rect>
      
      <!-- Line 9 -->
      <text x="10" y="128" fill="#8b5cf6">&lt;/body&gt;</text>
    </g>
  </g>
  
  <!-- Terminal window -->
  <g filter="url(#shadowC3)" transform="translate(200, 150)">
    <rect x="0" y="0" width="180" height="120" rx="10" fill="url(#cardGradC3)" stroke="#2a2a3a" stroke-width="1"/>
    
    <!-- Terminal header -->
    <rect x="0" y="0" width="180" height="28" rx="10" fill="#1a1a25"/>
    <rect x="0" y="18" width="180" height="10" fill="#1a1a25"/>
    <circle cx="18" cy="14" r="5" fill="#ff5f57"/>
    <circle cx="35" cy="14" r="5" fill="#febc2e"/>
    <circle cx="52" cy="14" r="5" fill="#28c840"/>
    <text x="90" y="18" font-family="system-ui" font-size="9" fill="#64748b" text-anchor="middle">Terminal</text>
    
    <!-- Terminal content -->
    <g transform="translate(12, 40)" font-family="monospace" font-size="9">
      <text x="0" y="0" fill="#10b981">$</text>
      <text x="12" y="0" fill="#f1f5f9">npm run build</text>
      
      <text x="0" y="16" fill="#64748b">Building...</text>
      
      <text x="0" y="32" fill="#10b981">✓</text>
      <text x="12" y="32" fill="#f1f5f9">Compiled successfully</text>
      
      <text x="0" y="48" fill="#10b981">✓</text>
      <text x="12" y="48" fill="#f1f5f9">Bundle size: 142kb</text>
      
      <text x="0" y="64" fill="#10b981">$</text>
      <rect x="12" y="56" width="6" height="12" fill="#10b981" opacity="0.8">
        <animate attributeName="opacity" values="0.8;0.2;0.8" dur="1s" repeatCount="indefinite"/>
      </rect>
    </g>
  </g>
  
  <!-- Git branch indicator -->
  <g filter="url(#glowC3)" transform="translate(30, 245)">
    <rect x="0" y="0" width="100" height="30" rx="6" fill="url(#cardGradC3)" stroke="#2a2a3a" stroke-width="1"/>
    <circle cx="20" cy="15" r="6" fill="#8b5cf6"/>
    <path d="M20 9 L20 21" stroke="#8b5cf6" stroke-width="2"/>
    <circle cx="20" cy="9" r="3" fill="#8b5cf6"/>
    <text x="35" y="19" font-family="monospace" font-size="10" fill="#f1f5f9">main</text>
    <circle cx="85" cy="15" r="4" fill="#10b981"/>
  </g>
  
  <!-- Progress indicator -->
  <g transform="translate(150, 245)">
    <rect x="0" y="0" width="120" height="30" rx="6" fill="url(#cardGradC3)" stroke="#2a2a3a" stroke-width="1"/>
    <text x="10" y="13" font-family="system-ui" font-size="8" fill="#64748b">Haladás</text>
    <rect x="10" y="18" width="100" height="6" rx="3" fill="#12121a"/>
    <rect x="10" y="18" width="75" height="6" rx="3" fill="url(#greenGradC3)"/>
    <text x="95" y="13" font-family="system-ui" font-size="8" fill="#10b981">75%</text>
  </g>
  
  <!-- Floating code brackets -->
  <g filter="url(#glowC3)" opacity="0.6">
    <text x="340" y="60" font-family="monospace" font-size="30" fill="#3b82f6">{</text>
    <text x="350" y="120" font-family="monospace" font-size="30" fill="#8b5cf6">}</text>
  </g>
  
  <!-- Step indicator -->
  <g transform="translate(30, 290)">
    <circle cx="20" cy="20" r="18" fill="url(#blueGradC3)"/>
    <text x="20" y="26" font-family="system-ui, sans-serif" font-size="16" font-weight="bold" fill="#fff" text-anchor="middle">3</text>
    <text x="55" y="26" font-family="system-ui, sans-serif" font-size="14" fill="#f1f5f9">Ontwikkeling</text>
  </g>
</svg>
