<svg xmlns="http://www.w3.org/2000/svg" viewBox="0 0 400 350" fill="none">
  <defs>
    <linearGradient id="bgGradC5" x1="0%" y1="0%" x2="100%" y2="100%">
      <stop offset="0%" style="stop-color:#12121a"/>
      <stop offset="100%" style="stop-color:#1a1a25"/>
    </linearGradient>
    <linearGradient id="blueGradC5" x1="0%" y1="0%" x2="100%" y2="100%">
      <stop offset="0%" style="stop-color:#3b82f6"/>
      <stop offset="100%" style="stop-color:#8b5cf6"/>
    </linearGradient>
    <linearGradient id="greenGradC5" x1="0%" y1="0%" x2="100%" y2="100%">
      <stop offset="0%" style="stop-color:#10b981"/>
      <stop offset="100%" style="stop-color:#34d399"/>
    </linearGradient>
    <linearGradient id="cyanGradC5" x1="0%" y1="0%" x2="100%" y2="100%">
      <stop offset="0%" style="stop-color:#06b6d4"/>
      <stop offset="100%" style="stop-color:#22d3ee"/>
    </linearGradient>
    <linearGradient id="cardGradC5" x1="0%" y1="0%" x2="100%" y2="100%">
      <stop offset="0%" style="stop-color:#1e1e2a"/>
      <stop offset="100%" style="stop-color:#252532"/>
    </linearGradient>
    <filter id="glowC5" x="-50%" y="-50%" width="200%" height="200%">
      <feGaussianBlur stdDeviation="3" result="coloredBlur"/>
      <feMerge>
        <feMergeNode in="coloredBlur"/>
        <feMergeNode in="SourceGraphic"/>
      </feMerge>
    </filter>
    <filter id="shadowC5" x="-20%" y="-20%" width="140%" height="140%">
      <feDropShadow dx="0" dy="8" stdDeviation="12" flood-color="#000" flood-opacity="0.3"/>
    </filter>
  </defs>
  
  <!-- Background -->
  <rect width="400" height="350" fill="url(#bgGradC5)"/>
  
  <!-- Circular connection pattern -->
  <g opacity="0.1">
    <circle cx="200" cy="150" r="120" fill="none" stroke="#3b82f6" stroke-width="1" stroke-dasharray="8 4"/>
    <circle cx="200" cy="150" r="80" fill="none" stroke="#8b5cf6" stroke-width="1" stroke-dasharray="8 4"/>
  </g>
  
  <!-- Support Dashboard -->
  <g filter="url(#shadowC5)">
    <rect x="60" y="40" width="280" height="170" rx="14" fill="url(#cardGradC5)" stroke="#2a2a3a" stroke-width="1"/>
    
    <!-- Header -->
    <rect x="60" y="40" width="280" height="40" rx="14" fill="#1a1a25"/>
    <rect x="60" y="66" width="280" height="14" fill="#1a1a25"/>
    
    <circle cx="85" cy="60" r="6" fill="#ff5f57"/>
    <circle cx="105" cy="60" r="6" fill="#febc2e"/>
    <circle cx="125" cy="60" r="6" fill="#28c840"/>
    
    <text x="200" y="65" font-family="system-ui" font-size="12" fill="#f1f5f9" text-anchor="middle">Onderhoudspaneel</text>
    
    <!-- Status cards row -->
    <g transform="translate(75, 95)">
      <!-- Uptime card -->
      <rect x="0" y="0" width="75" height="55" rx="8" fill="#12121a"/>
      <text x="37" y="18" font-family="system-ui" font-size="8" fill="#64748b" text-anchor="middle">Uptime</text>
      <text x="37" y="40" font-family="system-ui" font-size="18" font-weight="bold" fill="#10b981" text-anchor="middle">99.9%</text>
      <circle cx="60" cy="15" r="4" fill="#10b981">
        <animate attributeName="opacity" values="1;0.5;1" dur="2s" repeatCount="indefinite"/>
      </circle>
      
      <!-- Updates card -->
      <rect x="85" y="0" width="75" height="55" rx="8" fill="#12121a"/>
      <text x="122" y="18" font-family="system-ui" font-size="8" fill="#64748b" text-anchor="middle">Updates</text>
      <text x="122" y="40" font-family="system-ui" font-size="18" font-weight="bold" fill="#3b82f6" text-anchor="middle">Auto</text>
      <circle cx="145" cy="15" r="4" fill="#3b82f6"/>
      
      <!-- Security card -->
      <rect x="170" y="0" width="75" height="55" rx="8" fill="#12121a"/>
      <text x="207" y="18" font-family="system-ui" font-size="8" fill="#64748b" text-anchor="middle">Beveiliging</text>
      <g transform="translate(195, 28)">
        <path d="M12 2 L22 6 L22 14 C22 20 17 24 12 26 C7 24 2 20 2 14 L2 6 Z" fill="none" stroke="#10b981" stroke-width="2"/>
        <path d="M8 14 L11 17 L17 11" stroke="#10b981" stroke-width="2" fill="none"/>
      </g>
    </g>
    
    <!-- Activity timeline -->
    <g transform="translate(75, 160)">
      <text x="0" y="10" font-family="system-ui" font-size="9" fill="#64748b">Recente activiteit:</text>
      <circle cx="8" cy="28" r="4" fill="#10b981"/>
      <text x="20" y="32" font-family="system-ui" font-size="9" fill="#94a3b8">Plugin bijgewerkt - 2u</text>
    </g>
  </g>
  
  <!-- Support chat bubble -->
  <g filter="url(#shadowC5)" transform="translate(250, 180)">
    <rect x="0" y="0" width="120" height="85" rx="12" fill="url(#cardGradC5)" stroke="#2a2a3a" stroke-width="1"/>
    
    <!-- Chat header -->
    <rect x="0" y="0" width="120" height="30" rx="12" fill="#1a1a25"/>
    <rect x="0" y="18" width="120" height="12" fill="#1a1a25"/>
    <circle cx="22" cy="15" r="8" fill="url(#blueGradC5)"/>
    <text x="22" y="18" font-family="system-ui" font-size="8" fill="#fff" text-anchor="middle">?</text>
    <text x="70" y="19" font-family="system-ui" font-size="10" fill="#f1f5f9" text-anchor="middle">Ondersteuning</text>
    <circle cx="100" cy="15" r="5" fill="#10b981"/>
    
    <!-- Chat messages -->
    <g transform="translate(10, 38)">
      <rect x="0" y="0" width="70" height="18" rx="8" fill="#12121a"/>
      <text x="8" y="12" font-family="system-ui" font-size="7" fill="#94a3b8">Kan ik helpen?</text>
      
      <rect x="30" y="24" width="70" height="18" rx="8" fill="url(#blueGradC5)" opacity="0.3"/>
      <text x="38" y="36" font-family="system-ui" font-size="7" fill="#f1f5f9">Ja, bedankt!</text>
    </g>
  </g>
  
  <!-- Maintenance tools -->
  <g filter="url(#glowC5)" transform="translate(30, 180)">
    <!-- Wrench icon -->
    <rect x="0" y="0" width="50" height="50" rx="10" fill="url(#cardGradC5)" stroke="#2a2a3a" stroke-width="1"/>
    <g transform="translate(12, 12)">
      <path d="M20 6 L24 2 L26 4 L22 8 L26 12 L24 14 L20 10 L16 14 L8 22 L4 18 L12 10 L16 6 Z" fill="#f59e0b" opacity="0.8"/>
    </g>
  </g>
  
  <!-- Update cycle arrows -->
  <g filter="url(#glowC5)" transform="translate(30, 240)">
    <rect x="0" y="0" width="50" height="50" rx="10" fill="url(#cardGradC5)" stroke="#2a2a3a" stroke-width="1"/>
    <g transform="translate(10, 10)">
      <path d="M15 5 A10 10 0 1 1 5 15" fill="none" stroke="url(#cyanGradC5)" stroke-width="2.5" stroke-linecap="round"/>
      <path d="M15 5 L18 2 L18 8 Z" fill="#06b6d4"/>
      <path d="M15 25 A10 10 0 1 1 25 15" fill="none" stroke="url(#cyanGradC5)" stroke-width="2.5" stroke-linecap="round"/>
      <path d="M15 25 L12 28 L12 22 Z" fill="#06b6d4"/>
    </g>
  </g>
  
  <!-- 24/7 availability badge -->
  <g transform="translate(100, 230)">
    <rect x="0" y="0" width="80" height="35" rx="8" fill="url(#greenGradC5)" opacity="0.15" stroke="url(#greenGradC5)" stroke-width="1"/>
    <text x="40" y="16" font-family="system-ui" font-size="12" font-weight="bold" fill="#10b981" text-anchor="middle">24/7</text>
    <text x="40" y="28" font-family="system-ui" font-size="8" fill="#34d399" text-anchor="middle">Ondersteuning</text>
  </g>
  
  <!-- Response time indicator -->
  <g transform="translate(200, 230)">
    <rect x="0" y="0" width="90" height="35" rx="8" fill="url(#blueGradC5)" opacity="0.15" stroke="url(#blueGradC5)" stroke-width="1"/>
    <text x="45" y="16" font-family="system-ui" font-size="11" font-weight="bold" fill="#3b82f6" text-anchor="middle">&lt; 24 uur</text>
    <text x="45" y="28" font-family="system-ui" font-size="8" fill="#8b5cf6" text-anchor="middle">Reactietijd</text>
  </g>
  
  <!-- Step indicator -->
  <g transform="translate(30, 290)">
    <circle cx="20" cy="20" r="18" fill="url(#blueGradC5)"/>
    <text x="20" y="26" font-family="system-ui, sans-serif" font-size="16" font-weight="bold" fill="#fff" text-anchor="middle">5</text>
    <text x="55" y="26" font-family="system-ui, sans-serif" font-size="14" fill="#f1f5f9">Nazorg</text>
  </g>
</svg>
